<?xml version="1.0" encoding="utf-8"?>
<!-- Generator: Adobe Illustrator 18.0.0, SVG Export Plug-In . SVG Version: 6.00 Build 0)  -->
<!DOCTYPE svg PUBLIC "-//W3C//DTD SVG 1.1//EN" "http://www.w3.org/Graphics/SVG/1.1/DTD/svg11.dtd">
<svg version="1.1" id="Icon_Set" xmlns="http://www.w3.org/2000/svg" xmlns:xlink="http://www.w3.org/1999/xlink" x="0px" y="0px"
	 viewBox="0 0 256 256" style="enable-background:new 0 0 256 256;" xml:space="preserve">
<style type="text/css">
	.st0{fill:#484771;}
	.st1{fill:#F1C48B;}
	.st2{fill:#D5E6F7;}
	.st3{fill:#A0D1F2;}
	.st4{fill:#FD919F;}
	.st5{fill:#E0667D;}
	.st6{fill:#504774;}
	.st7{fill:#7BACF1;}
	.st8{fill:#FFFFFF;}
	.st9{fill:#D4E7F8;}
	.st10{fill:#A3D0F1;}
	.st11{fill:#4C4372;}
	.st12{fill:#7BABF3;}
	.st13{fill:#FD919E;}
	.st14{fill:#D3E6F8;}
	.st15{fill:#E8677D;}
	.st16{fill:#A4CFF2;}
</style>
<g>
	<g>
		<circle class="st1" cx="128" cy="128" r="103.873"/>
	</g>
	<g>
		<polygon class="st4" points="216.524,91.332 172.745,83.255 164.668,39.476 128,64.721 91.332,39.476 83.255,83.255 
			39.476,91.332 64.721,128 39.476,164.668 83.255,172.745 91.332,216.524 128,191.279 164.668,216.524 172.745,172.745 
			216.524,164.668 191.279,128 		"/>
	</g>
	<g>
		<g>
			<path class="st5" d="M216.524,91.332l-13.148-2.426l-25.328,36.788c-0.956,1.388-0.956,3.223,0,4.611l25.328,36.788l13.148-2.426
				L191.279,128L216.524,91.332z"/>
		</g>
	</g>
	<g>
		<path class="st6" d="M164.668,219.523c-0.599,0-1.194-0.18-1.702-0.529L128,194.921l-34.967,24.073
			c-0.838,0.575-1.909,0.689-2.849,0.301c-0.939-0.389-1.618-1.228-1.802-2.228l-7.703-41.747l-41.748-7.702
			c-1-0.185-1.838-0.863-2.227-1.802c-0.389-0.939-0.276-2.012,0.3-2.85L61.079,128L37.005,93.033c-0.576-0.838-0.689-1.91-0.3-2.85
			c0.389-0.938,1.228-1.617,2.227-1.802l41.748-7.702l7.703-41.747c0.185-1,0.863-1.839,1.802-2.228
			c0.939-0.39,2.012-0.275,2.849,0.301L128,61.079l34.966-24.073c0.836-0.576,1.909-0.691,2.849-0.301
			c0.939,0.389,1.618,1.228,1.802,2.228l7.703,41.747l41.748,7.702c1,0.185,1.838,0.863,2.227,1.802
			c0.389,0.939,0.276,2.012-0.3,2.85L194.921,128l24.074,34.967c0.576,0.838,0.689,1.91,0.3,2.85
			c-0.389,0.938-1.228,1.617-2.227,1.802l-41.748,7.702l-7.703,41.747c-0.185,1-0.863,1.839-1.802,2.228
			C165.446,219.448,165.056,219.523,164.668,219.523z M44.571,162.558l39.228,7.237c1.223,0.226,2.18,1.183,2.406,2.406
			l7.237,39.227l32.856-22.62c1.025-0.705,2.378-0.705,3.402,0l32.856,22.62l7.237-39.227c0.226-1.224,1.183-2.181,2.406-2.406
			l39.229-7.237l-22.621-32.856c-0.705-1.024-0.705-2.378,0-3.402l22.621-32.856L172.2,86.205c-1.223-0.226-2.18-1.183-2.406-2.406
			l-7.237-39.227l-32.856,22.62c-1.024,0.705-2.378,0.705-3.402,0l-32.856-22.62l-7.237,39.227
			c-0.226,1.224-1.183,2.181-2.406,2.406l-39.228,7.237l22.621,32.856c0.705,1.024,0.705,2.378,0,3.402L44.571,162.558z"/>
	</g>
	<g>
		<path class="st3" d="M133.327,136.464v-23.566c7.506-2.287,12.983-9.273,12.983-17.517c0-10.096-8.214-18.309-18.309-18.309
			c-10.096,0-18.309,8.214-18.309,18.309c0,8.244,5.477,15.23,12.983,17.517v28.422c0,2.942,2.385,5.327,5.327,5.327
			c11.107,0,20.143,9.036,20.143,20.143s-9.036,20.143-20.143,20.143c-9.264,0-17.087-6.286-19.429-14.817h4.022
			c2.051,0,3.92-1.178,4.805-3.028c0.885-1.85,0.629-4.044-0.658-5.641l-10.063-12.487c-1.418-1.759-3.791-2.433-5.92-1.68
			c-2.13,0.751-3.554,2.764-3.554,5.023v12.487c0,16.981,13.815,30.796,30.796,30.796s30.796-13.815,30.796-30.796
			C158.796,151.625,147.777,138.995,133.327,136.464z M120.344,95.381c0-4.222,3.435-7.656,7.656-7.656
			c4.222,0,7.656,3.434,7.656,7.656s-3.435,7.656-7.656,7.656C123.779,103.037,120.344,99.603,120.344,95.381z"/>
	</g>
	<g>
		<path class="st6" d="M128,200.586c-18.635,0-33.796-15.161-33.796-33.797v-12.486c0-3.525,2.233-6.681,5.557-7.853
			c0.891-0.314,1.823-0.475,2.768-0.475c2.532,0,4.895,1.13,6.484,3.102l10.064,12.486c2,2.483,2.404,5.945,1.028,8.819
			c-1.315,2.749-4.069,4.568-7.094,4.723c2.976,5.344,8.681,8.827,14.989,8.827c9.453,0,17.143-7.69,17.143-17.144
			c0-9.452-7.69-17.143-17.143-17.143c-4.591,0-8.326-3.735-8.326-8.327v-26.328c-7.745-3.31-12.983-11.076-12.983-19.61
			c0-11.75,9.559-21.31,21.309-21.31s21.31,9.56,21.31,21.31c0,8.534-5.238,16.301-12.983,19.61v19.048
			c14.902,3.765,25.469,17.155,25.469,32.75C161.796,185.425,146.635,200.586,128,200.586z M102.529,151.976
			c-0.263,0-0.522,0.044-0.771,0.132c-0.93,0.328-1.554,1.21-1.554,2.195v12.486c0,15.327,12.469,27.797,27.796,27.797
			s27.796-12.47,27.796-27.797c0-13.526-9.667-25.037-22.987-27.37c-1.436-0.252-2.482-1.498-2.482-2.955v-23.566
			c0-1.32,0.863-2.485,2.126-2.87c6.393-1.946,10.857-7.97,10.857-14.646c0-8.441-6.868-15.31-15.31-15.31
			c-8.441,0-15.309,6.868-15.309,15.31c0,6.677,4.464,12.7,10.857,14.646c1.263,0.385,2.126,1.55,2.126,2.87v28.422
			c0,1.283,1.043,2.327,2.326,2.327c12.761,0,23.143,10.382,23.143,23.143c0,12.762-10.382,23.144-23.143,23.144
			c-10.391,0-19.57-7-22.321-17.022c-0.248-0.902-0.06-1.869,0.507-2.613s1.45-1.181,2.386-1.181h4.022
			c0.891,0,1.714-0.52,2.099-1.323c0.384-0.803,0.271-1.771-0.288-2.465l-10.063-12.485
			C103.897,152.292,103.237,151.976,102.529,151.976z M128,106.037c-5.876,0-10.656-4.78-10.656-10.656s4.78-10.656,10.656-10.656
			s10.657,4.78,10.657,10.656S133.876,106.037,128,106.037z M128,90.725c-2.567,0-4.656,2.089-4.656,4.656s2.089,4.656,4.656,4.656
			c2.568,0,4.657-2.089,4.657-4.656S130.568,90.725,128,90.725z"/>
	</g>
</g>
</svg>
